<!DOCTYPE svg PUBLIC "-//W3C//DTD SVG 1.1//EN" "http://www.w3.org/Graphics/SVG/1.1/DTD/svg11.dtd">
<!-- Uploaded to: SVG Repo, www.svgrepo.com, Transformed by: SVG Repo Mixer Tools -->
<svg fill="#58761b" height="800px" width="800px" version="1.1" id="Capa_1" xmlns="http://www.w3.org/2000/svg" xmlns:xlink="http://www.w3.org/1999/xlink" viewBox="0 0 475.478 475.478" xml:space="preserve" stroke="#58761b" transform="rotate(0)">
<g id="SVGRepo_bgCarrier" stroke-width="0"/>
<g id="SVGRepo_tracerCarrier" stroke-linecap="round" stroke-linejoin="round"/>
<g id="SVGRepo_iconCarrier"> <g> <path d="M345.564,240.084c-5.002-6.123-12.137-9.635-19.575-9.635c-7.438,0-14.572,3.512-19.575,9.635l-45.548,55.758 c-8.053,9.857-5.567,17.994-4.125,21.036c1.442,3.041,6.171,10.115,18.899,10.115h11.665v86.724 c0,10.428,8.484,18.913,18.913,18.913h39.54c10.428,0,18.913-8.484,18.913-18.912v-86.725h11.664 c12.728,0,17.457-7.074,18.9-10.115c1.443-3.042,3.929-11.179-4.123-21.036L345.564,240.084z M354.171,305.993 c-5.799,0-10.5,4.701-10.5,10.5v95.136h-35.365v-95.136c0-5.799-4.701-10.5-10.5-10.5H279.69l42.987-52.624 c1.012-1.238,2.188-1.92,3.311-1.92s2.299,0.682,3.311,1.92l42.988,52.624H354.171z"/> <path d="M169.064,240.083c-5.002-6.122-12.137-9.634-19.574-9.634s-14.572,3.512-19.575,9.635l-45.548,55.758 c-8.052,9.858-5.566,17.995-4.124,21.036c1.442,3.041,6.172,10.114,18.899,10.114h11.665v86.725 c0,10.428,8.484,18.912,18.913,18.912h39.539c10.429,0,18.913-8.484,18.913-18.912v-86.725h11.664 c12.728,0,17.458-7.074,18.9-10.115c1.443-3.041,3.929-11.179-4.123-21.035L169.064,240.083z M177.672,305.992 c-5.799,0-10.5,4.701-10.5,10.5v95.136h-35.365v-95.137c0-5.799-4.701-10.5-10.5-10.5H103.19l42.987-52.623 c1.012-1.238,2.188-1.92,3.312-1.92c1.123,0,2.3,0.682,3.311,1.92l42.988,52.624H177.672z"/> <path d="M444.978,0H30.5C13.682,0,0,13.682,0,30.5v414.477c0,16.818,13.682,30.5,30.5,30.5h414.478c16.818,0,30.5-13.682,30.5-30.5 V30.5C475.478,13.682,461.795,0,444.978,0z M192.741,21h89.995v95.378l-1.662-1.257c-3.748-2.837-8.926-2.837-12.674,0.001 l-12.156,9.203l-12.163-9.204c-3.748-2.837-8.924-2.837-12.672,0l-12.165,9.205l-12.166-9.206c-3.748-2.836-8.924-2.836-12.671,0 l-1.668,1.261V21z M454.478,444.977c0,5.238-4.262,9.5-9.5,9.5H30.5c-5.238,0-9.5-4.262-9.5-9.5V30.5c0-5.238,4.262-9.5,9.5-9.5 h141.241v116.494c0,3.985,2.256,7.627,5.824,9.401c3.568,1.775,7.833,1.376,11.011-1.028l12.167-9.206l12.166,9.206 c3.748,2.836,8.925,2.836,12.672,0l12.164-9.205l12.164,9.205c3.748,2.837,8.925,2.836,12.674-0.001l12.155-9.203l12.161,9.204 c1.859,1.407,4.091,2.127,6.338,2.127c1.593,0,3.193-0.362,4.674-1.098c3.568-1.775,5.825-5.417,5.825-9.402V21h141.241 c5.238,0,9.5,4.262,9.5,9.5V444.977z"/> </g> </g>
</svg>